<?xml version="1.0" encoding="UTF-8" standalone="no"?>
<svg width="40px" height="40px" viewBox="0 0 40 40" version="1.1" xmlns="http://www.w3.org/2000/svg" xmlns:xlink="http://www.w3.org/1999/xlink">
    <!-- Generator: Sketch 3.7 (28169) - http://www.bohemiancoding.com/sketch -->
    <title>Artboard 1</title>
    <desc>Created with Sketch.</desc>
    <defs></defs>
    <g id="Page-1" stroke="none" stroke-width="1" fill="none" fill-rule="evenodd">
        <g id="Artboard-1" fill="#000000">
            <g id="noun_24939_cc" transform="translate(5.000000, 1.000000)">
                <g id="Group">
                    <path d="M26.8358621,16.0358 L26.8358621,34.63792 L2.34813793,34.63792 L2.34813793,15.08786 L12.7687356,15.08786 L12.7687356,4.60539 L19.3445517,4.60539 L20.9335172,2.24331 L11.108046,2.24331 L0,13.41768 L0,37 L29.1843678,37 L29.1843678,12.54559 L26.8358621,16.0358 L26.8358621,16.0358 Z M4.00845977,12.72615 L10.4205977,6.27594 L10.4205977,12.72615 L4.00845977,12.72615 L4.00845977,12.72615 Z" id="Shape"></path>
                    <polygon id="Shape" points="17.0868966 25.54961 12.3542069 26.6844 11.6424828 21.84221 22.7450115 5.34058 28.1901609 9.04687"></polygon>
                    <rect id="Rectangle-path" transform="translate(27.973092, 3.472746) rotate(124.084174) translate(-27.973092, -3.472746) " x="26.0295873" y="0.166116365" width="3.88700933" height="6.61325897"></rect>
                </g>
            </g>
        </g>
    </g>
</svg>