<?xml version="1.0" encoding="UTF-8" standalone="no"?>
<svg width="36px" height="36px" viewBox="0 0 36 36" version="1.1" xmlns="http://www.w3.org/2000/svg" xmlns:xlink="http://www.w3.org/1999/xlink">
    <!-- Generator: Sketch 3.7 (28169) - http://www.bohemiancoding.com/sketch -->
    <title>Artboard 1</title>
    <desc>Created with Sketch.</desc>
    <defs></defs>
    <g id="Page-1" stroke="none" stroke-width="1" fill="none" fill-rule="evenodd">
        <g id="Artboard-1" fill="#000000">
            <g id="noun_445523_cc" transform="translate(5.000000, 0.000000)">
                <g id="Group">
                    <g id="Shape">
                        <path d="M19.5,28.2857143 L3.9,28.2857143 L3.9,3.85714286 L19.5,3.85714286 L19.5,6.42857143 L23.4,6.42857143 L23.4,2.57142857 C23.4,1.15714286 22.23,0 20.8,0 L2.6,0 C1.17,0 0,1.15714286 0,2.57142857 L0,33.4285714 C0,34.8428571 1.17,36 2.6,36 L20.8,36 C22.23,36 23.4,34.8428571 23.4,33.4285714 L23.4,24.4285714 L19.5,24.4285714 L19.5,28.2857143 L19.5,28.2857143 Z M13,33.4285714 L10.4,33.4285714 L10.4,30.8571429 L13,30.8571429 L13,33.4285714 L13,33.4285714 Z"></path>
                        <path d="M23.4,9 L10.4,9 C8.9635,9 7.8,10.1507143 7.8,11.5714286 L7.8,19.2857143 C7.8,20.7064286 8.9635,21.8571429 10.4,21.8571429 L13,21.8571429 L13,25.7142857 L16.9,21.8571429 L23.4,21.8571429 C24.8365,21.8571429 26,20.7064286 26,19.2857143 L26,11.5714286 C26,10.1507143 24.8365,9 23.4,9 L23.4,9 Z M13,16.7142857 L10.4,16.7142857 L10.4,14.1428571 L13,14.1428571 L13,16.7142857 L13,16.7142857 Z M18.2,16.7142857 L15.6,16.7142857 L15.6,14.1428571 L18.2,14.1428571 L18.2,16.7142857 L18.2,16.7142857 Z M23.4,16.7142857 L20.8,16.7142857 L20.8,14.1428571 L23.4,14.1428571 L23.4,16.7142857 L23.4,16.7142857 Z"></path>
                    </g>
                </g>
            </g>
        </g>
    </g>
</svg>